# xmcd
#
# Track frame offsets:
#	150
#	9912
#	22535
#	35496
#	48394
#	73039
#	83880
#	97772
#	116467
#	130555
#	143828
#
# Disc length: 2231 seconds
#
# Revision: 0
# Processed by: cddbd v1.5.2PL0 Copyright (c) Steve Scherf et al.
# Submitted via: audiograbber 1.83.01
#
DISCID=7808b50b
DTITLE=Sammy Davis Jr - Starring Sammy Davis Jr
DYEAR=1900
DGENRE=
TTITLE0=Lonesome Road
TTITLE1=Hey There
TTITLE2=And This is My Beloved
TTITLE3=September Song
TTITLE4=Because of You
TTITLE5=Easy to Love
TTITLE6=Glad to Be Unhappy
TTITLE7=Stan` Up An` Fight
TTITLE8=My Funny Valentine
TTITLE9=Spoken For
TTITLE10=Birth Of The Blues
EXTD=
EXTT0=
EXTT1=
EXTT2=
EXTT3=
EXTT4=
EXTT5=
EXTT6=
EXTT7=
EXTT8=
EXTT9=
EXTT10=
PLAYORDER=
